<?xml version="1.0" standalone="no"?>
<!DOCTYPE svg PUBLIC "-//W3C//DTD SVG 20010904//EN"
 "http://www.w3.org/TR/2001/REC-SVG-20010904/DTD/svg10.dtd">
<svg version="1.0" xmlns="http://www.w3.org/2000/svg"
 width="700.000000pt" height="700.000000pt" viewBox="0 0 700.000000 700.000000"
 preserveAspectRatio="xMidYMid meet">
<metadata>
Created by potrace 1.11, written by Peter Selinger 2001-2013
</metadata>
<g transform="translate(0.000000,700.000000) scale(0.100000,-0.100000)"
fill="#000000" stroke="none">
<path d="M1405 6123 c-78 -11 -140 -30 -205 -61 -146 -70 -272 -229 -311 -392
-20 -83 -21 -4211 -1 -4320 39 -219 221 -409 442 -461 83 -20 4211 -21 4320
-1 219 39 408 220 461 442 19 81 20 4259 0 4340 -51 212 -222 385 -436 441
-40 10 -462 13 -2150 14 -1155 0 -2109 -1 -2120 -2z m4131 -586 c7 -7 6 -1725
-1 -1736 -3 -7 -745 -10 -2040 -10 -1896 1 -2035 2 -2035 17 -1 23 -1 1658 0
1699 0 27 4 32 28 35 42 5 4043 0 4048 -5z m4 -2372 c0 -25 1 -317 1 -650 0
-333 -1 -706 -1 -830 l0 -225 -2040 0 -2040 0 -1 63 c0 84 0 1534 0 1620 l1
67 2040 0 2040 0 0 -45z"/>
<path d="M2255 4946 c-96 -30 -153 -82 -190 -172 -62 -154 19 -330 176 -381
220 -72 430 122 373 345 -24 92 -93 170 -179 202 -45 17 -135 20 -180 6z"/>
<path d="M2262 2614 c-220 -57 -293 -324 -132 -484 144 -145 381 -102 467 86
100 218 -102 458 -335 398z"/>
</g>
</svg>
